<?xml version="1.0" encoding="UTF-8" standalone="no"?>
<svg
   xmlns:dc="http://purl.org/dc/elements/1.1/"
   xmlns:cc="http://creativecommons.org/ns#"
   xmlns:rdf="http://www.w3.org/1999/02/22-rdf-syntax-ns#"
   xmlns:svg="http://www.w3.org/2000/svg"
   xmlns="http://www.w3.org/2000/svg"
   xmlns:sodipodi="http://sodipodi.sourceforge.net/DTD/sodipodi-0.dtd"
   xmlns:inkscape="http://www.inkscape.org/namespaces/inkscape"
   version="1.1"
   viewBox="0 0 128 128"
   stroke-miterlimit="10"
   clip-path="url(#p.0)"
   id="svg3031"
   inkscape:version="0.48.0 r9654"
   width="100%"
   height="100%"
   sodipodi:docname="MPIDE (1).svg"
   style="fill:none;stroke:none">
  <metadata
     id="metadata3056">
    <rdf:RDF>
      <cc:Work
         rdf:about="">
        <dc:format>image/svg+xml</dc:format>
        <dc:type
           rdf:resource="http://purl.org/dc/dcmitype/StillImage" />
        <dc:title></dc:title>
      </cc:Work>
    </rdf:RDF>
  </metadata>
  <defs
     id="defs3054" />
  <sodipodi:namedview
     pagecolor="#ffffff"
     bordercolor="#666666"
     borderopacity="1"
     objecttolerance="10"
     gridtolerance="10"
     guidetolerance="10"
     inkscape:pageopacity="0"
     inkscape:pageshadow="2"
     inkscape:window-width="1680"
     inkscape:window-height="944"
     id="namedview3052"
     showgrid="false"
     width="128px"
     inkscape:zoom="5.1857143"
     inkscape:cx="108.78512"
     inkscape:cy="70"
     inkscape:window-x="0"
     inkscape:window-y="0"
     inkscape:window-maximized="1"
     inkscape:current-layer="svg3031">
    <inkscape:grid
       type="xygrid"
       id="grid3068"
       empspacing="5"
       visible="true"
       enabled="true"
       snapvisiblegridlinesonly="true" />
  </sodipodi:namedview>
  <clipPath
     id="p.0">
    <path
       d="M 0,0 206,0 206,140 0,140 0,0 z"
       clip-rule="nonzero"
       id="path3034"
       inkscape:connector-curvature="0" />
  </clipPath>
  <g
     id="g3058"
     transform="matrix(0.61066915,0,0,0.61066915,1.785359,29.319627)">
    <path
       style="fill:#ffffff;fill-rule:nonzero;stroke:#980000;stroke-width:8;stroke-linecap:butt;stroke-linejoin:round"
       inkscape:connector-curvature="0"
       id="path3036"
       d="m 5.7395015,57.22638 0,0 c 0,-35.876767 30.8042185,-64.960632 68.8031485,-64.960632 l 0,0 c 18.24773,0 35.74808,6.844047 48.65118,19.026528 12.90308,12.182484 20.15197,28.70547 20.15197,45.934104 l 0,0 c 0,35.87676 -30.80422,64.96063 -68.80315,64.96063 l 0,0 c -37.99893,0 -68.8031485,-29.08387 -68.8031485,-64.96063 z" />
    <path
       style="stroke:#980000;stroke-width:8;stroke-linecap:butt;stroke-linejoin:round"
       inkscape:connector-curvature="0"
       id="path3038"
       d="m 64.19882,57.88911 0,0 c 0,-35.87677 30.80422,-64.960632 68.80315,-64.960632 l 0,0 c 18.24773,0 35.74808,6.844046 48.65117,19.026528 12.90309,12.18248 20.15197,28.705471 20.15197,45.934104 l 0,0 c 0,35.87676 -30.80421,64.96062 -68.80314,64.96062 l 0,0 c -37.99893,0 -68.80315,-29.08386 -68.80315,-64.96062 z" />
    <path
       style="fill:#980000;fill-rule:nonzero;stroke:#980000;stroke-width:2;stroke-linecap:butt;stroke-linejoin:round"
       inkscape:connector-curvature="0"
       id="path3040"
       d="m 105.66207,1.835301 -36.05249,25.866142 -1.71654,38.795277 16.72179,39.43044 21.04724,12.29922 34.33071,-36.20998 3.4357,-40.089234 -17.17061,-31.039372 z" />
    <path
       style="fill:#980000;fill-rule:nonzero"
       inkscape:connector-curvature="0"
       id="path3042"
       d="m 20.085321,73.07794 0,-34.359373 10.375,0 6.234379,23.437503 6.171873,-23.437503 10.40625,0 0,34.359373 -6.453123,0 0,-27.046873 -6.8125,27.046873 -6.6875,0 -6.796879,-27.046873 0,27.046873 -6.4375,0 z" />
    <path
       style="fill:#980000;fill-rule:nonzero"
       inkscape:connector-curvature="0"
       id="path3044"
       d="m 158.78156,73.74067 0,-34.359376 11.125,0 q 6.32812,0 8.25,0.515626 2.95312,0.765624 4.94531,3.359374 1.99219,2.59375 1.99219,6.6875 0,3.171876 -1.14844,5.328126 -1.14844,2.15625 -2.91406,3.38281 -1.76563,1.226564 -3.59376,1.632814 -2.48437,0.484376 -7.20312,0.484376 l -4.51562,0 0,12.96875 -6.9375,0 z m 6.9375,-28.546876 0,9.75 3.79687,0 q 4.09375,0 5.47657,-0.539064 1.3828,-0.53906 2.17187,-1.6875 0.78906,-1.148436 0.78906,-2.679686 0,-1.875 -1.10156,-3.09375 -1.10157,-1.21875 -2.78907,-1.515624 -1.25,-0.234376 -5,-0.234376 l -3.34374,0 z" />
    <path
       style="fill:#ffffff;fill-rule:nonzero"
       inkscape:connector-curvature="0"
       id="path3046"
       d="m 100.96397,30.999813 0,-22.906248 4.625,0 0,22.906248 -4.625,0 z" />
    <path
       style="fill:#ffffff;fill-rule:nonzero"
       inkscape:connector-curvature="0"
       id="path3048"
       d="m 93.9796,44.890438 8.45312,0 q 2.85938,0 4.35938,0.4375 2.01562,0.59375 3.45312,2.109375 1.4375,1.515625 2.1875,3.710937 0.75,2.19532 0.75,5.41407 0,2.82812 -0.70312,4.875 -0.85938,2.5 -2.45313,4.04687 -1.20312,1.17188 -3.25,1.82813 -1.53125,0.48437 -4.09375,0.48437 l -8.70312,0 0,-22.906252 z m 4.625,3.875 0,15.171882 3.45312,0 q 1.9375,0 2.79688,-0.21875 1.125,-0.28125 1.86719,-0.95313 0.74218,-0.67187 1.21093,-2.210936 0.46875,-1.539064 0.46875,-4.195314 0,-2.65625 -0.46875,-4.07812 -0.46875,-1.421882 -1.3125,-2.218757 -0.84375,-0.796875 -2.14062,-1.078125 -0.96875,-0.21875 -3.79688,-0.21875 l -2.07812,0 z" />
    <path
       style="fill:#ffffff;fill-rule:nonzero"
       inkscape:connector-curvature="0"
       id="path3050"
       d="m 94.87804,104.59357 0,-22.90625 16.98437,0 0,3.875 -12.35937,0 0,5.07812 11.5,0 0,3.85938 -11.5,0 0,6.23437 12.79687,0 0,3.85938 -17.42187,0 z" />
  </g>
  <path
     style="fill:#ffffff;fill-opacity:0;opacity:0"
     d="m 78.856745,101.59359 c -2.078373,-0.21281 -4.490949,-0.65072 -6.439177,-1.16878 l -1.521821,-0.40468 0.557634,-0.287725 c 0.306699,-0.15825 1.295238,-0.81147 2.196753,-1.451599 9.471217,-6.725126 15.602445,-16.116681 17.573444,-26.918255 0.508119,-2.784618 0.702854,-8.752237 0.376239,-11.529777 -0.967062,-8.223909 -4.352976,-15.916861 -9.796445,-22.25798 -2.51888,-2.934252 -5.994685,-6.00322 -8.938495,-7.892258 l -1.012288,-0.649583 0.946982,-0.243824 c 4.305179,-1.108473 10.507932,-1.499402 14.927698,-0.940819 9.339681,1.180377 17.129761,4.827926 23.498971,11.00293 7.33005,7.106537 11.19296,15.992512 11.20801,25.782134 0.0214,13.905085 -8.10262,26.464514 -21.30478,32.936502 -6.903071,3.384034 -14.722996,4.796754 -22.272725,4.023714 z m 24.297525,-31.090686 0,-3.926847 3.32644,-0.09894 c 2.83381,-0.08429 3.49548,-0.163436 4.46782,-0.534449 2.33556,-0.891178 3.67037,-2.77583 3.89087,-5.493633 0.23405,-2.884696 -0.88434,-5.229262 -3.01394,-6.31838 -1.3113,-0.670625 -3.70922,-0.905283 -9.29792,-0.909888 l -3.808536,-0.0031 0,10.60606 0,10.606061 2.217636,0 2.21763,0 0,-3.926848 z"
     id="path3001"
     inkscape:connector-curvature="0" />
</svg>
